HIERARCHY
ROOT Hips
{
	OFFSET 0.00000 0.00000 0.00000
	CHANNELS 6 Xposition Yposition Zposition Zrotation Yrotation Xrotation 
	JOINT LHipJoint
	{
		OFFSET 0 0 0
		CHANNELS 3 Zrotation Yrotation Xrotation
		JOINT LeftUpLeg
		{
			OFFSET 1.52977 -1.71332 0.88991
			CHANNELS 3 Zrotation Yrotation Xrotation
			JOINT LeftLeg
			{
				OFFSET 2.23949 -6.15296 0.00000
				CHANNELS 3 Zrotation Yrotation Xrotation
				JOINT LeftFoot
				{
					OFFSET 2.68396 -7.37412 0.00000
					CHANNELS 3 Zrotation Yrotation Xrotation
					JOINT LeftToeBase
					{
						OFFSET 0.20538 -0.56428 2.52710
						CHANNELS 3 Zrotation Yrotation Xrotation
						End Site
						{
							OFFSET 0.00000 -0.00000 1.29919
						}
					}
				}
			}
		}
	}
	JOINT RHipJoint
	{
		OFFSET 0 0 0
		CHANNELS 3 Zrotation Yrotation Xrotation
		JOINT RightUpLeg
		{
			OFFSET -1.45689 -1.71333 0.88991
			CHANNELS 3 Zrotation Yrotation Xrotation
			JOINT RightLeg
			{
				OFFSET -2.36700 -6.50329 0.00000
				CHANNELS 3 Zrotation Yrotation Xrotation
				JOINT RightFoot
				{
					OFFSET -2.69814 -7.41308 0.00000
					CHANNELS 3 Zrotation Yrotation Xrotation
					JOINT RightToeBase
					{
						OFFSET -0.18734 -0.51471 2.37479
						CHANNELS 3 Zrotation Yrotation Xrotation
						End Site
						{
							OFFSET -0.00000 -0.00000 1.22113
						}
					}
				}
			}
		}
	}
	JOINT LowerBack
	{
		OFFSET 0 0 0
		CHANNELS 3 Zrotation Yrotation Xrotation
		JOINT Spine
		{
			OFFSET 0.04294 2.14638 -0.31163
			CHANNELS 3 Zrotation Yrotation Xrotation
			JOINT Spine1
			{
				OFFSET -0.00400 2.17216 0.01486
				CHANNELS 3 Zrotation Yrotation Xrotation
				JOINT Neck
				{
					OFFSET 0 0 0
					CHANNELS 3 Zrotation Yrotation Xrotation
					JOINT Neck1
					{
						OFFSET 0.03869 1.76598 0.14916
						CHANNELS 3 Zrotation Yrotation Xrotation
						JOINT Head
						{
							OFFSET -0.00760 1.75513 -0.18948
							CHANNELS 3 Zrotation Yrotation Xrotation
							End Site
							{
								OFFSET -0.00601 1.82444 -0.08310
							}
						}
					}
				}
				JOINT LeftShoulder
				{
					OFFSET 0 0 0
					CHANNELS 3 Zrotation Yrotation Xrotation
					JOINT LeftArm
					{
						OFFSET 3.73696 0.92058 0.01733
						CHANNELS 3 Zrotation Yrotation Xrotation
						JOINT LeftForeArm
						{
							OFFSET 5.22771 -0.00000 0.00000
							CHANNELS 3 Zrotation Yrotation Xrotation
							JOINT LeftHand
							{
								OFFSET 3.45251 -0.00000 0.00000
								CHANNELS 3 Zrotation Yrotation Xrotation
								JOINT LeftFingerBase
								{
									OFFSET 0 0 0
									CHANNELS 3 Zrotation Yrotation Xrotation
									JOINT LeftHandIndex1
									{
										OFFSET 0.55212 -0.00000 0.00000
										CHANNELS 3 Zrotation Yrotation Xrotation
										End Site
										{
											OFFSET 0.44513 -0.00000 0.00000
										}
									}
								}
								JOINT LThumb
								{
									OFFSET 0 0 0
									CHANNELS 3 Zrotation Yrotation Xrotation
									End Site
									{
										OFFSET 0.45193 -0.00000 0.45193
									}
								}
							}
						}
					}
				}
				JOINT RightShoulder
				{
					OFFSET 0 0 0
					CHANNELS 3 Zrotation Yrotation Xrotation
					JOINT RightArm
					{
						OFFSET -3.63819 0.83094 -0.13694
						CHANNELS 3 Zrotation Yrotation Xrotation
						JOINT RightForeArm
						{
							OFFSET -5.23980 -0.00000 -0.00000
							CHANNELS 3 Zrotation Yrotation Xrotation
							JOINT RightHand
							{
								OFFSET -3.48042 -0.00000 -0.00000
								CHANNELS 3 Zrotation Yrotation Xrotation
								JOINT RightFingerBase
								{
									OFFSET 0 0 0
									CHANNELS 3 Zrotation Yrotation Xrotation
									JOINT RightHandIndex1
									{
										OFFSET -0.61871 -0.00000 0.00000
										CHANNELS 3 Zrotation Yrotation Xrotation
										End Site
										{
											OFFSET -0.49882 -0.00000 0.00000
										}
									}
								}
								JOINT RThumb
								{
									OFFSET 0 0 0
									CHANNELS 3 Zrotation Yrotation Xrotation
									End Site
									{
										OFFSET -0.50644 -0.00000 0.50644
									}
								}
							}
						}
					}
				}
			}
		}
	}
}
MOTION
Frames: 6
Frame Time: .0083333
16.0367 16.1198 -4.1364 -169.4730 -82.3918 192.4130 0.0000 0.0000 0.0000 -20.3147 -10.1016 -52.3253 6.0899 14.5149 45.3417 0.5556 -3.4859 -13.3234 0.0001 -0.0572 -0.1572 0.0000 0.0000 0.0000 8.8949 18.6736 -61.0581 -17.9050 -19.8944 83.8643 -0.6495 -1.0074 -15.6215 -1.4444 7.5977 -21.4986 0.7465 -0.0210 31.0442 -1.2086 -0.6299 6.7506 -1.5195 -0.6005 -9.4138 1.4138 1.1133 3.8270 0.2949 1.4344 -16.4879 -0.2144 0.4631 -5.5895 -0.0000 -0.0000 0.0000 -82.9029 -1.1016 34.8666 19.4999 -30.0351 -5.2787 -0.0000 0.0000 -24.5527 21.1103 9.6646 3.7084 -7.1250 0.0000 -0.0000 -5.1616 40.2729 0.6034 -0.0000 -0.0000 0.0000 87.7708 1.0534 32.9743 -21.4748 32.3784 -6.3023 0.0000 -0.0000 -3.9257 -20.5247 -6.0759 2.2692 7.1250 -0.0000 -0.0000 5.2260 -36.4215 1.1061
16.1375 16.1343 -4.1356 -169.2180 -82.5521 192.3200 0.0000 0.0000 0.0000 -20.3151 -10.0521 -52.6425 5.9432 14.3731 44.7533 0.5030 -3.6748 -12.6471 0.0002 0.1013 0.2782 0.0000 0.0000 0.0000 9.0944 18.3914 -60.2971 -18.0570 -19.9092 84.3107 -0.6061 -0.8278 -15.0293 -1.4118 7.5150 -21.2504 0.7854 -0.0571 30.9925 -1.1983 -0.6571 6.7283 -1.5204 -0.6118 -9.4157 1.4084 1.0939 3.8314 0.3148 1.4100 -16.5117 -0.2059 0.4495 -5.5981 0.0000 0.0000 0.0000 -82.8939 -1.1175 34.8496 19.5107 -30.0483 -5.2842 -0.0000 0.0000 -24.5702 21.1220 9.6278 3.6967 -7.1250 0.0000 -0.0000 -5.1463 40.2348 0.6064 0.0000 0.0000 0.0000 87.7534 1.0468 33.0004 -21.5249 32.4359 -6.3291 0.0000 -0.0000 -3.9504 -20.5535 -6.0536 2.2644 7.1250 -0.0000 -0.0000 5.1995 -36.3993 1.1033
16.2382 16.1479 -4.1353 -168.8760 -82.7117 192.1180 0.0000 0.0000 0.0000 -20.3029 -10.0071 -52.9384 5.8010 14.2327 44.1777 0.4528 -3.8584 -11.9785 0.0017 0.2626 0.7214 0.0000 0.0000 0.0000 9.3257 18.1102 -59.4981 -18.1718 -19.9197 84.6477 -0.5592 -0.6180 -14.3644 -1.3583 7.3772 -20.8378 0.8326 -0.0908 30.9541 -1.1852 -0.6791 6.7103 -1.5250 -0.6213 -9.4187 1.4050 1.0748 3.8375 0.3387 1.3867 -16.5364 -0.1966 0.4361 -5.6072 -0.0000 -0.0000 0.0000 -82.8893 -1.1334 34.8402 19.5176 -30.0567 -5.2876 -0.0000 0.0000 -24.5678 21.1265 9.6123 3.6917 -7.1250 0.0000 -0.0000 -5.1402 40.2187 0.6077 -0.0000 -0.0000 0.0000 87.7365 1.0447 33.0108 -21.5697 32.4873 -6.3532 0.0000 -0.0000 -3.9777 -20.5731 -6.0558 2.2676 7.1250 -0.0000 -0.0000 5.1834 -36.4028 1.0994
16.3386 16.1603 -4.1356 -168.4060 -82.8652 191.7670 0.0000 0.0000 0.0000 -20.2734 -9.9571 -53.2129 5.6633 14.0939 43.6149 0.4054 -4.0360 -11.3238 0.0044 0.4283 1.1769 0.0000 0.0000 0.0000 9.5936 17.8403 -58.6593 -18.2473 -19.9262 84.8693 -0.5094 -0.3695 -13.6221 -1.2968 7.2148 -20.3533 0.8874 -0.1191 30.9279 -1.1683 -0.6927 6.6988 -1.5328 -0.6273 -9.4199 1.4027 1.0566 3.8464 0.3676 1.3658 -16.5659 -0.1860 0.4232 -5.6183 -0.0000 0.0000 0.0000 -82.8911 -1.1513 34.8359 19.5201 -30.0598 -5.2889 -0.0000 0.0000 -24.5408 21.1259 9.6029 3.6880 -7.1250 0.0000 -0.0000 -5.1394 40.2086 0.6089 -0.0000 0.0000 0.0000 87.7180 1.0484 33.0145 -21.5969 32.5185 -6.3678 0.0000 -0.0000 -3.9464 -20.6375 -6.0348 2.2675 7.1250 -0.0000 -0.0000 5.1272 -36.3841 1.0898
16.4388 16.1717 -4.1365 -167.9240 -83.0073 191.3800 0.0000 0.0000 0.0000 -20.2419 -9.9028 -53.4610 5.5295 13.9563 43.0628 0.3611 -4.2082 -10.6889 0.0087 0.6016 1.6533 0.0000 0.0000 0.0000 9.8789 17.5874 -57.7830 -18.2826 -19.9291 84.9728 -0.4548 -0.1098 -12.7813 -1.2317 7.0384 -19.8292 0.9312 -0.1407 30.9152 -1.1505 -0.7020 6.6933 -1.5347 -0.6315 -9.4203 1.3994 1.0424 3.8578 0.3990 1.3505 -16.5998 -0.1748 0.4130 -5.6312 -0.0000 -0.0000 0.0000 -82.9010 -1.1664 34.8327 19.5200 -30.0597 -5.2888 -0.0000 0.0000 -24.4994 21.1351 9.5829 3.6821 -7.1250 0.0000 -0.0000 -5.1286 40.1882 0.6102 -0.0000 -0.0000 0.0000 87.6956 1.0595 33.0137 -21.6185 32.5431 -6.3794 0.0000 -0.0000 -3.9127 -20.6839 -6.0325 2.2722 7.1250 -0.0000 -0.0000 5.0880 -36.3842 1.0814
16.5391 16.1816 -4.1382 -167.4850 -83.1377 191.0150 0.0000 0.0000 0.0000 -20.2143 -9.8452 -53.6862 5.4002 13.8208 42.5242 0.3196 -4.3739 -10.0723 0.0146 0.7811 2.1468 0.0000 0.0000 0.0000 10.1744 17.3526 -56.8770 -18.2778 -19.9287 84.9589 -0.3975 0.1706 -11.8528 -1.1661 6.8550 -19.2866 0.9575 -0.1548 30.9148 -1.1341 -0.7083 6.6927 -1.5289 -0.6343 -9.4210 1.3958 1.0317 3.8719 0.4350 1.3409 -16.6364 -0.1625 0.4051 -5.6454 -0.0000 -0.0000 0.0000 -82.9174 -1.1795 34.8321 19.5168 -30.0558 -5.2872 -0.0000 0.0000 -24.4484 21.1531 9.5606 3.6771 -7.1250 0.0000 -0.0000 -5.1098 40.1660 0.6108 -0.0000 -0.0000 0.0000 87.6668 1.0789 33.0254 -21.6306 32.5571 -6.3859 0.0000 -0.0000 -3.8883 -20.7249 -6.0395 2.2797 7.1250 -0.0000 -0.0000 5.0545 -36.3939 1.0730
